<svg width="2674.9" height="417" xmlns="http://www.w3.org/2000/svg" fill="#68bd45" class="logo" version="1.1">

 <g>
  <title>Layer 1</title>
  <g id="svg_1">
   <path id="svg_2" d="m366.9,29c-5.8,14.1 -13.3,26.6 -21.6,37.8c-36.6,-37.3 -87.8,-61 -144.3,-61c-111,0 -201.7,90.2 -201.7,201.6c0,58.2 24.9,110.6 64.4,147.6l7.5,6.7c34.9,29.5 80.3,47.4 129.7,47.4c106,0 193.3,-82.7 200.8,-187.1c6,-50.7 -9.4,-115.6 -34.8,-193zm-274,327.7c-5.8,7.5 -16.6,8.3 -24.1,2.5s-8.3,-16.6 -2.5,-24.1s16.6,-8.3 24.1,-2.5c7.1,5.8 8.3,16.6 2.5,24.1zm272.8,-60.3c-49.5,66.1 -155.9,43.7 -223.7,47c0,0 -12.1,0.8 -24.1,2.5c0,0 4.6,-2.1 10.4,-4.2c47.8,-16.6 70.3,-20 99.4,-34.9c54.5,-27.9 108.9,-89 119.8,-152.2c-20.8,60.7 -84,113.1 -141.4,134.3c-39.5,14.6 -110.6,28.7 -110.6,28.7l-2.9,-1.7c-48.2,-23.7 -49.9,-128.5 38.3,-162.2c38.7,-15 75.3,-6.7 117.3,-16.6c44.5,-10.4 96.1,-43.7 116.8,-87.3c23.1,70.3 51.4,179.2 0.7,246.6z" class="st0"/>
   <g id="svg_3">
    <path id="svg_4" d="m516.2,286.4c-5,-2.5 -8.3,-8.3 -8.3,-15.4c0,-10 7.9,-18.3 18.3,-18.3c3.7,0 7.1,1.2 9.6,2.5c18.7,12.5 38.7,18.7 56.1,18.7c19.1,0 30.4,-8.3 30.4,-21.2l0,-0.8c0,-15.4 -20.8,-20.4 -43.7,-27.4c-28.7,-8.3 -61.1,-20 -61.1,-57.4l0,-0.8c0,-37 30.8,-59.5 69.4,-59.5c20.8,0 42.4,5.8 61.5,15.8c6.2,3.3 10.8,9.1 10.8,17c0,10.4 -8.3,18.3 -18.7,18.3c-3.7,0 -5.8,-0.8 -8.7,-2.1c-15.8,-8.3 -32,-13.3 -45.7,-13.3c-17.5,0 -27.4,8.3 -27.4,19.1l0,0.8c0,14.6 21.2,20.4 44.1,27.9c28.7,8.7 60.7,22 60.7,57l0,0.8c0,41.2 -32,61.5 -72.3,61.5c-25.5,0.1 -52.6,-7.8 -75,-23.2z" class="st1"/>
    <path id="svg_5" d="m680,129.7c0,-12.5 9.6,-22.5 22,-22.5s22.5,10 22.5,22.5l0,13.3c14.6,-20.4 34.9,-36.6 66.5,-36.6c45.7,0 90.6,36.2 90.6,101.5l0,0.8c0,64.9 -44.5,101.5 -90.6,101.5c-32.4,0 -52.8,-16.2 -66.5,-34.5l0,69c0,12.5 -10,22.5 -22.5,22.5c-12.1,0 -22,-9.6 -22,-22.5l0,-215zm156.8,79l0,-0.8c0,-37.8 -25.4,-62.4 -55.7,-62.4c-30.4,0 -57,25.4 -57,62.4l0,0.8c0,37.4 26.6,62.4 57,62.4c30.3,0.4 55.7,-23.8 55.7,-62.4z" class="st1"/>
    <path id="svg_6" d="m899.1,129.7c0,-12.5 9.6,-22.5 22,-22.5s22.5,10 22.5,22.5l0,10.8c2.1,-16.6 29.5,-33.3 49.1,-33.3c14.1,0 22,9.1 22,22c0,11.6 -7.9,19.5 -17.9,21.6c-32,5.4 -53.6,33.3 -53.6,71.9l0,64.4c0,12.1 -10,22 -22.5,22c-12.1,0 -22,-9.6 -22,-22l0,-157.4l0.4,0z" class="st1"/>
    <path id="svg_7" d="m1032.6,130.1c0,-12.5 9.6,-22.5 22,-22.5s22.5,10 22.5,22.5l0,157.6c0,12.5 -10,22 -22.5,22c-12.1,0 -22,-9.6 -22,-22l0,-157.6z" class="st1"/>
    <path id="svg_8" d="m1100,130.1c0,-12.5 9.6,-22.5 22,-22.5s22.5,10 22.5,22.5l0,9.1c12.5,-18.3 30.8,-32 61.1,-32c44.1,0 69.4,29.5 69.4,74.8l0,105.2c0,12.5 -9.6,22 -22,22s-22.5,-9.6 -22.5,-22l0,-91.5c0,-30.4 -15,-47.8 -42,-47.8c-25.8,0 -44.1,18.3 -44.1,48.6l0,91.1c0,12.5 -10,22 -22.5,22c-12.1,0 -22,-9.6 -22,-22l0.1,-157.5l0,0z" class="st1"/>
    <path id="svg_9" d="m1472.1,106.8c-12.5,0 -22.5,10 -22.5,22.5l0,13.3c-14.6,-20.4 -34.9,-36.6 -66.5,-36.6c-45.7,0 -90.6,36.2 -90.6,101.5l0,0.8c0,64.9 44.5,101.5 90.6,101.5c32.4,0 52.8,-16.2 66.5,-34.1c-2.1,35.3 -23.7,53.6 -61.5,53.6c-22.5,0 -42,-5.4 -59.9,-15.4c-2.1,-1.2 -5,-1.7 -7.9,-1.7c-10.4,0 -19.1,8.3 -19.1,18.3c0,8.7 5,15 12.5,17.9c23.7,11.6 48.2,17.5 75.7,17.5c35.3,0 62.8,-8.3 80.3,-26.2c16.2,-16.2 24.9,-40.7 24.9,-73.6l0,-136.4c0,-12.9 -10,-22.9 -22.5,-22.9zm-78.6,164.2c-30.8,0 -55.7,-24.1 -55.7,-62.8l0,-0.8c0,-37.8 25.4,-62.4 55.7,-62.4s57,25.4 57,62.4l0,0.8c0.4,37.5 -26.2,62.8 -57,62.8z" class="st1"/>
    <path id="svg_10" d="m1077.5,53.6c0,12.5 -10,22.5 -22.5,22.5s-22.5,-10 -22.5,-22.5s10,-22.5 22.5,-22.5c12.1,-0.4 22.5,9.6 22.5,22.5z" class="st1"/>
   </g>
   <g id="svg_11">
    <path id="svg_12" d="m1545.7,153.8c-12.5,0 -22.9,-10.4 -22.9,-22.9c0,-12.9 10.4,-22.9 22.9,-22.9c12.9,0 22.9,10.4 22.9,22.9s-10,22.9 -22.9,22.9zm0,-42.4c-10.8,0 -19.5,8.7 -19.5,19.5s8.7,19.5 19.5,19.5s19.5,-8.7 19.5,-19.5c0,-11.2 -8.7,-19.5 -19.5,-19.5zm6.2,32.4l-6.7,-10.4l-4.6,0l0,10.4l-3.7,0l0,-26.2l10.8,0c4.6,0 8.7,3.3 8.7,7.9c0,5.8 -5.4,7.9 -6.7,7.9l7.1,10.4l-4.9,0l0,0zm-4.5,-22.9l-6.7,0l0,9.1l7.1,0c2.1,0 4.6,-1.7 4.6,-4.6c0,-2.8 -2.5,-4.5 -5,-4.5z" class="st1"/>
   </g>
   <g id="svg_13">
    <path id="svg_14" d="m1652.3,260.1c0,20 -12.8,34.1 -30,34.1c-10.4,0 -18.8,-5.2 -23.7,-13.7l0,12.2l-9.4,0l0,-88l9.4,0l0,35.1c4.9,-8.6 13.2,-13.7 23.7,-13.7c17.1,0 30,14.1 30,34zm-10,0c0,-15 -9.1,-25.6 -21.8,-25.6c-12.8,0 -21.9,10.6 -21.9,25.6s9.1,25.7 21.9,25.7c12.8,0 21.8,-10.7 21.8,-25.7z" class="st1"/>
    <path id="svg_15" d="m1668,313.3l2.3,-8.1c2.3,1.1 4.9,1.6 7.7,1.6c4.2,0 6.9,-1.4 9.4,-5.8l3.8,-8.1l-28.3,-65.3l10.4,0l22.8,54.1l21.5,-54.1l10.2,0l-29.7,72.4c-4.5,11.1 -10.8,15.2 -19.8,15.4c-3.7,0 -7.3,-0.8 -10.3,-2.1z" class="st1"/>
    <path id="svg_16" d="m1861.3,206.2l-38.1,86.5l-10.7,0l-38.1,-86.5l10.7,0l32.9,74.4l32.7,-74.4l10.6,0l0,0z" class="st1"/>
    <path id="svg_17" d="m1877.1,206.2l9.8,0l32.1,60.3l32.1,-60.3l9.8,0l0,86.5l-9.8,0l0,-65.3l-32.1,60.3l-32.1,-60.3l0,65.3l-9.8,0l0,-86.5z" class="st1"/>
    <path id="svg_18" d="m1977.2,227.6l10.1,0l16.2,52.5l17.8,-52.5l8.2,0l17.8,52.5l16.2,-52.5l10.1,0l-21.9,65.1l-8.9,0l-17.2,-52l-17.5,52l-8.9,0l-22,-65.1z" class="st1"/>
    <path id="svg_19" d="m2140.1,253.1l0,39.7l-9.4,0l0,-10.2c-4.7,7.7 -14.4,11.7 -22.9,11.7c-13.7,0 -23.8,-7.9 -23.8,-20.8c0,-13 11.6,-21.7 25.6,-21.7c7,0 14.5,1.5 21.2,3.7l0,-2.4c0,-8.8 -3.5,-18.9 -17.6,-18.9c-6.5,0 -13.1,2.9 -19,5.9l-3.8,-7.7c9.3,-4.7 17.1,-6.3 23.4,-6.3c17.6,0 26.3,11.2 26.3,27zm-9.4,19.2l0,-9.9c-5.9,-1.6 -12.6,-2.6 -19.6,-2.6c-9.7,0 -17.9,5.5 -17.9,13.3c0,8.1 7,12.8 16.2,12.8c8.6,0 18.8,-4.4 21.3,-13.6z" class="st1"/>
    <path id="svg_20" d="m2194.9,226.1l0,8.4c-14.7,0 -25.2,9.1 -25.2,21.8l0,36.4l-9.4,0l0,-65.1l9.4,0l0,12.7c3.9,-8.6 13.2,-14.2 25.2,-14.2z" class="st1"/>
    <path id="svg_21" d="m2257.8,278l5.8,6.2c-5.7,6.2 -17.1,10.1 -26.2,10.1c-17.4,0 -33,-14.2 -33,-34.2c0,-19.4 14.6,-33.9 32.1,-33.9c19.6,0 30.8,14.9 30.8,37.6l-53.3,0c1.4,12.7 10.3,22 23.2,22c7.8,0 16.6,-3.4 20.6,-7.8zm-43.5,-22.7l43.8,0c-1.3,-11.7 -8.2,-20.8 -21.2,-20.8c-11.5,0.1 -20.8,8.2 -22.6,20.8z" class="st1"/>
    <path id="svg_22" d="m2344.6,215.6l-29.1,0l0,-9.3l68,0l0,9.3l-29.1,0l0,77.2l-9.8,0l0,-77.2l0,0z" class="st1"/>
    <path id="svg_23" d="m2451.6,253.1l0,39.7l-9.4,0l0,-10.2c-4.7,7.7 -14.4,11.7 -22.9,11.7c-13.7,0 -23.8,-7.9 -23.8,-20.8c0,-13 11.6,-21.7 25.6,-21.7c7,0 14.5,1.5 21.2,3.7l0,-2.4c0,-8.8 -3.5,-18.9 -17.6,-18.9c-6.5,0 -13.1,2.9 -19,5.9l-3.8,-7.7c9.3,-4.7 17.1,-6.3 23.4,-6.3c17.6,0 26.3,11.2 26.3,27zm-9.4,19.2l0,-9.9c-5.9,-1.6 -12.6,-2.6 -19.6,-2.6c-9.7,0 -17.9,5.5 -17.9,13.3c0,8.1 7,12.8 16.2,12.8c8.5,0 18.7,-4.4 21.3,-13.6z" class="st1"/>
    <path id="svg_24" d="m2526.3,251.3l0,41.4l-9.4,0l0,-40.2c0,-10.6 -6.7,-18 -16.2,-18c-11,0 -20.1,7.7 -20.1,16.7l0,41.4l-9.4,0l0,-65.1l9.4,0l0,10.4c3.8,-6.9 12.2,-12 21.4,-12c14.2,0.2 24.3,10.7 24.3,25.4z" class="st1"/>
    <path id="svg_25" d="m2542.6,285.3l38.4,-48.7l-37.6,0l0,-8.9l50.4,0l0,7.4l-38.5,48.7l38.8,0l0,8.9l-51.4,0l-0.1,-7.4l0,0z" class="st1"/>
    <path id="svg_26" d="m2665.4,227.6l0,65.1l-9.4,0l0,-10.4c-3.8,6.9 -12.2,12 -21.4,12c-14.4,0 -24.4,-10.4 -24.4,-25.2l0,-41.4l9.4,0l0,40.2c0,10.6 6.7,18 16.2,18c11,0 20.1,-7.7 20.1,-16.7l0,-41.4l9.5,0l0,-0.2z" class="st1"/>
   </g>
  </g>
  <path id="svg_27" d="m92.9,356.7c-5.8,7.5 -16.6,8.3 -24.1,2.5s-8.3,-16.6 -2.5,-24.1s16.6,-8.3 24.1,-2.5c7.1,5.8 8.3,16.6 2.5,24.1z" class="st1"/>
  <path fill="none" id="svg_28" d="m365.7,296.4c-49.5,66.1 -155.9,43.7 -223.7,47c0,0 -12.1,0.8 -24.1,2.5c0,0 4.6,-2.1 10.4,-4.2c47.8,-16.6 70.3,-20 99.4,-34.9c54.5,-27.9 108.9,-89 119.8,-152.2c-20.8,60.7 -84,113.1 -141.4,134.3c-39.5,14.6 -110.6,28.7 -110.6,28.7l-2.9,-1.7c-48.2,-23.7 -49.9,-128.5 38.3,-162.2c38.7,-15 75.3,-6.7 117.3,-16.6c44.5,-10.4 96.1,-43.7 116.8,-87.3c23.1,70.3 51.4,179.2 0.7,246.6z" class="st3"/>
 </g>
</svg>